# xmcd
#
# Track frame offsets:
#	158
#	21633
#	35813
#	59663
#	73838
#	96578
#	113050
#	140920
#	151453
#	168575
#	190723
#	205883
#	221780
#	237925
#	254008
#	269048
#
# Disc length: 4016 seconds
#
# Revision: 2
# Processed by: cddbd v1.5.1PL2 Copyright (c) Steve Scherf et al.
# Submitted via: audiograbber 1.83.01
#
DISCID=110fae10
DTITLE=Various Artist - Beat The Retreat (Songs By Richard Thompson)
DYEAR=1994
DGENRE=Folk-Rock
TTITLE0=X  - Shoot Out The Lights
TTITLE1=R.E.M.  - Wall Of Death
TTITLE2=Bonnie Raitt  - When The Spell Is Broken
TTITLE3=Bob Mould  - Turning Of The Tide
TTITLE4=Syd Straw and Evan Dando  - For Shame Of Doing Wrong
TTITLE5=Los Lobos  - Down Where The Drunkards Roll
TTITLE6=June Tabor  - Beat The Retreat
TTITLE7=June Tabor  - Genesis Hall
TTITLE8=Dinosaur Jr  - I Misunderstood
TTITLE9=Graham Parker  - The Madness Of Love
TTITLE10=David Byrne  - Just The Motion
TTITLE11=Beausoleil  - Valerie
TTITLE12=Shawn Colvin and Loudon Wainwright III - A Heart Needs A Home
TTITLE13=The Five Blind Boys Of Alabama  - Dimming Of The Day
TTITLE14=Maddy Prior and Martin Carthy  - Farewell, Farewell
TTITLE15=Maddy Prior and Martin Carthy  - The Great Valerio 
EXTD=
EXTT0=
EXTT1=
EXTT2=
EXTT3=
EXTT4=
EXTT5=
EXTT6=
EXTT7=
EXTT8=
EXTT9=
EXTT10=
EXTT11=
EXTT12=
EXTT13=
EXTT14=
EXTT15=
PLAYORDER=
